<svg width="105" height="32" viewBox="0 0 105 32" fill="none" xmlns="http://www.w3.org/2000/svg">
<g opacity="0.84">
<path d="M11.6667 11.0013C11.6667 11.9218 12.4129 12.668 13.3333 12.668C14.2538 12.668 15 11.9218 15 11.0013V4.33464C15 3.41416 14.2538 2.66797 13.3333 2.66797C12.4129 2.66797 11.6667 3.41416 11.6667 4.33464V11.0013Z" fill="#262626"/>
<path d="M11.6667 27.668C11.6667 28.5884 12.4129 29.3346 13.3333 29.3346C14.2538 29.3346 15 28.5884 15 27.668V21.0013C15 20.0808 14.2538 19.3346 13.3333 19.3346C12.4129 19.3346 11.6667 20.0808 11.6667 21.0013V27.668Z" fill="#262626"/>
<path d="M15.6908 13.6443C15.0399 12.9934 15.0399 11.9381 15.6908 11.2873L20.4048 6.57321C21.0557 5.92233 22.111 5.92233 22.7618 6.57321C23.4127 7.22408 23.4127 8.27936 22.7618 8.93023L18.0478 13.6443C17.3969 14.2951 16.3417 14.2951 15.6908 13.6443Z" fill="#262626"/>
<path d="M3.90566 23.0724C3.25479 23.7232 3.25479 24.7785 3.90566 25.4294C4.55654 26.0803 5.61181 26.0803 6.26269 25.4294L10.9767 20.7153C11.6276 20.0645 11.6276 19.0092 10.9767 18.3583C10.3259 17.7074 9.27058 17.7074 8.61971 18.3583L3.90566 23.0724Z" fill="#262626"/>
<path d="M15.6905 18.3583C16.3414 17.7075 17.3967 17.7075 18.0475 18.3583L22.7616 23.0724C23.4125 23.7233 23.4125 24.7785 22.7616 25.4294C22.1107 26.0803 21.0554 26.0803 20.4046 25.4294L15.6905 20.7154C15.0397 20.0645 15.0397 19.0092 15.6905 18.3583Z" fill="#262626"/>
<path d="M6.26244 6.57323C5.61156 5.92235 4.55629 5.92235 3.90541 6.57323C3.25454 7.2241 3.25454 8.27937 3.90541 8.93025L8.61946 13.6443C9.27033 14.2952 10.3256 14.2952 10.9765 13.6443C11.6274 12.9934 11.6274 11.9381 10.9765 11.2873L6.26244 6.57323Z" fill="#262626"/>
<path d="M16.6667 16.0013C16.6667 15.0808 17.4129 14.3346 18.3333 14.3346H25C25.9205 14.3346 26.6667 15.0808 26.6667 16.0013C26.6667 16.9218 25.9205 17.668 25 17.668H18.3333C17.4129 17.668 16.6667 16.9218 16.6667 16.0013Z" fill="#262626"/>
<path d="M1.66667 14.3346C0.746192 14.3346 0 15.0808 0 16.0013C0 16.9218 0.746192 17.668 1.66667 17.668L8.33333 17.668C9.25381 17.668 10 16.9218 10 16.0013C10 15.0808 9.25381 14.3346 8.33333 14.3346L1.66667 14.3346Z" fill="#262626"/>
</g>
<g opacity="0.84">
<path d="M33.3334 21.9991V9.75906H42.1174V12.0451H36.2134V14.6191H41.4154V16.8511H36.2134V19.7131H42.1174V21.9991H33.3334Z" fill="#262626"/>
<path d="M49.3158 17.8771V12.3151H52.0698V21.9991H49.3158V20.7031C48.6858 21.7831 47.7318 22.2871 46.5618 22.2871C44.7258 22.2871 43.3758 21.1711 43.3758 18.7591V12.3151H46.1298V18.2011C46.1298 19.4431 46.5978 20.0551 47.5698 20.0551C48.6318 20.0551 49.3158 19.1191 49.3158 17.8771Z" fill="#262626"/>
<path d="M56.3343 25.9771H53.5803V12.3151H56.3343V13.3231C56.9283 12.4771 57.7563 12.0091 58.7643 12.0091C61.2663 12.0091 62.8323 13.9711 62.8323 17.1391C62.8323 20.4331 61.2303 22.2871 58.7643 22.2871C57.7383 22.2871 56.9103 21.8551 56.3343 21.0271V25.9771ZM58.1883 14.2411C56.9643 14.2411 56.3343 15.2671 56.3343 17.1391C56.3343 19.0111 56.9823 20.0551 58.1883 20.0551C59.3763 20.0551 60.0063 19.0291 60.0063 17.1391C60.0063 15.2671 59.3583 14.2411 58.1883 14.2411Z" fill="#262626"/>
<path d="M63.9254 21.9991V9.03906H66.6794V13.5931C67.3094 12.5131 68.2994 12.0091 69.4874 12.0091C71.3414 12.0091 72.7274 13.1431 72.7274 15.5371V21.9991H69.9734V16.0951C69.9734 14.8711 69.4874 14.2411 68.4794 14.2411C67.3814 14.2411 66.6794 15.1951 66.6794 16.4371V21.9991H63.9254Z" fill="#262626"/>
<path d="M78.5733 22.2871C75.6393 22.2871 73.8213 20.3431 73.8213 17.1571C73.8213 13.8631 75.6933 12.0091 78.5733 12.0091C81.5073 12.0091 83.3433 13.9891 83.3433 17.1571C83.3433 20.4331 81.4533 22.2871 78.5733 22.2871ZM78.5733 20.0551C79.8513 20.0551 80.5173 19.0471 80.5173 17.1571C80.5173 15.2851 79.8333 14.2411 78.5733 14.2411C77.3133 14.2411 76.6473 15.2671 76.6473 17.1571C76.6473 19.0291 77.3313 20.0551 78.5733 20.0551Z" fill="#262626"/>
<path d="M84.4397 21.9991V12.3151H87.1937V13.6651C87.8057 12.5131 88.7417 12.0091 89.7317 12.0091C90.1277 12.0091 90.4877 12.1171 90.6857 12.3151V14.6371C90.3617 14.5651 90.0197 14.5291 89.5877 14.5291C87.9317 14.5291 87.1937 15.4651 87.1937 16.9951V21.9991H84.4397Z" fill="#262626"/>
<path d="M91.4274 11.3431V9.03906H94.1814V11.3431H91.4274ZM91.4274 21.9991V12.3151H94.1814V21.9991H91.4274Z" fill="#262626"/>
<path d="M98.3729 15.5191H95.6189C95.9069 13.3411 97.5809 12.0091 100.065 12.0091C102.837 12.0091 104.277 13.6291 104.277 15.8791V19.5871C104.277 20.8471 104.385 21.4951 104.547 21.9991H101.703C101.613 21.6751 101.559 21.2611 101.541 20.7931C100.785 21.8371 99.6329 22.2871 98.4809 22.2871C96.6449 22.2871 95.2769 21.3511 95.2769 19.4971C95.2769 18.1831 96.0329 17.1751 97.5629 16.6351C98.8229 16.2211 100.029 16.0951 101.523 16.0771V15.8611C101.523 14.7991 101.001 14.2411 99.9389 14.2411C99.0029 14.2411 98.4989 14.7631 98.3729 15.5191ZM98.0309 19.3171C98.0309 19.9651 98.5169 20.3791 99.3269 20.3791C100.551 20.3791 101.523 19.3891 101.523 18.0571V17.6791C98.7329 17.7331 98.0309 18.4171 98.0309 19.3171Z" fill="#262626"/>
</g>
</svg>
