<svg width="132" height="32" viewBox="0 0 132 32" fill="none" xmlns="http://www.w3.org/2000/svg">
<g opacity="0.84">
<rect x="1.66667" y="10.3346" width="26" height="11.3333" rx="5.66667" stroke="#262626" stroke-width="3.33333"/>
</g>
<g opacity="0.84">
<path d="M38.9747 7.61328H35.8334V22.1666H38.9747V7.61328Z" fill="#262626"/>
<path d="M43.665 8.27995H40.6676V22.1666H43.665V18.4468L47.5717 22.1666H51.6233L45.86 16.7554L51.3253 12.4733H47.1116L43.665 15.2441V8.27995Z" fill="#262626"/>
<path d="M91.3744 7.61328H88.2331V22.1666H99.2944V19.3853H91.3744V7.61328Z" fill="#262626"/>
<path fill-rule="evenodd" clip-rule="evenodd" d="M113.999 8.27995H111.002V22.1666H114.191L114.079 21.3478C114.785 22.0885 115.756 22.4546 116.983 22.4546C117.787 22.4546 118.523 22.2484 119.167 21.7941C119.806 21.3426 120.292 20.7237 120.644 19.9446C120.997 19.1646 121.181 18.2768 121.181 17.2839C121.181 16.3261 120.997 15.4564 120.644 14.6773C120.291 13.8966 119.805 13.2963 119.167 12.8458L119.164 12.8439C118.524 12.4109 117.789 12.1853 116.983 12.1853C115.709 12.1853 114.711 12.5799 113.999 13.3787V8.27995ZM114.573 15.5177C114.955 15.0532 115.447 14.8226 116.065 14.8226C116.663 14.8226 117.158 15.0525 117.559 15.5036C117.961 15.9726 118.166 16.5619 118.166 17.3019C118.166 18.0611 117.96 18.6506 117.558 19.1195C117.157 19.5876 116.663 19.8173 116.065 19.8173C115.447 19.8173 114.955 19.5867 114.573 19.1221L114.571 19.1195C114.171 18.6527 113.981 18.0644 113.981 17.3019C113.981 16.5766 114.17 15.9879 114.571 15.5204L114.573 15.5177Z" fill="#262626"/>
<path d="M53.1751 7.97328C52.6304 7.97328 52.1929 8.15034 51.8367 8.48678L51.8333 8.4901C51.4773 8.84609 51.2985 9.2848 51.2985 9.79595C51.2985 10.3412 51.476 10.7805 51.8333 11.1378C52.1937 11.4982 52.6348 11.6546 53.1751 11.6546C53.7033 11.6546 54.1423 11.4765 54.499 11.1198C54.8556 10.7631 55.0338 10.3241 55.0338 9.79595C55.0338 9.2848 54.855 8.84605 54.499 8.49005L54.4956 8.48678C54.14 8.15095 53.7028 7.97328 53.1751 7.97328Z" fill="#262626"/>
<path d="M80.1899 7.97328C79.6452 7.97328 79.2077 8.15034 78.8515 8.48678L78.848 8.4901C78.4921 8.84609 78.3132 9.2848 78.3132 9.79595C78.3132 10.3412 78.4907 10.7805 78.848 11.1378C79.2085 11.4982 79.6496 11.6546 80.1899 11.6546C80.7181 11.6546 81.1571 11.4765 81.5137 11.1198C81.8704 10.7631 82.0486 10.3241 82.0486 9.79595C82.0486 9.2848 81.8698 8.84605 81.5138 8.49005L81.5103 8.48678C81.1548 8.15095 80.7176 7.97328 80.1899 7.97328Z" fill="#262626"/>
<path fill-rule="evenodd" clip-rule="evenodd" d="M60.1285 12.1853C59.3043 12.1853 58.5696 12.4106 57.9291 12.8439L57.9264 12.8458C57.2903 13.2948 56.7844 13.8944 56.4479 14.6788C56.0947 15.4603 55.9298 16.3482 55.9298 17.3379C55.9298 18.3102 56.0948 19.1632 56.4492 19.9099C56.7856 20.6567 57.2743 21.2224 57.9154 21.6188C58.5588 22.0347 59.2932 22.2206 60.1285 22.2206C61.3946 22.2206 62.3912 21.8714 63.0938 21.1558V21.3699C63.0938 22.2205 62.9329 22.7983 62.6151 23.1478L62.6127 23.1506C62.2945 23.5165 61.8083 23.7053 61.1185 23.7053C60.5389 23.7053 60.1025 23.617 59.7768 23.4379C59.4616 23.2646 59.2813 23.0058 59.2505 22.6515L59.2373 22.4993H56.2213L56.2364 22.6798C56.3298 23.801 56.7822 24.6604 57.6218 25.2332C58.4357 25.8006 59.573 26.0546 60.9925 26.0546C62.6614 26.0546 63.9465 25.6765 64.8149 24.8862C65.6863 24.0932 66.1091 22.9118 66.1091 21.3699V12.4733H62.9016L63.0125 13.2618C62.3172 12.5479 61.3495 12.1853 60.1285 12.1853ZM59.517 15.4124C59.9177 14.9449 60.4117 14.7146 61.0285 14.7146C61.6259 14.7146 62.1198 14.9439 62.5208 15.4111C62.9058 15.8805 63.1118 16.4888 63.1118 17.2299C63.1118 17.9893 62.9058 18.5782 62.5227 19.0285C62.1236 19.4769 61.6298 19.6913 61.0285 19.6913C60.3889 19.6913 59.8984 19.4755 59.5194 19.0141L59.515 19.0092C59.117 18.5614 58.9271 17.9747 58.9271 17.2299C58.9271 16.4849 59.1172 15.8789 59.517 15.4124Z" fill="#262626"/>
<path fill-rule="evenodd" clip-rule="evenodd" d="M71.4692 12.1853C70.645 12.1853 69.9103 12.4106 69.2698 12.8439L69.2671 12.8458C68.631 13.2947 68.1253 13.8942 67.7889 14.6602C67.4357 15.4414 67.2705 16.3112 67.2705 17.2839C67.2705 18.2737 67.4354 19.1616 67.7886 19.9431C68.1244 20.7259 68.6296 21.3441 69.2671 21.7941C69.911 22.2486 70.6477 22.4546 71.4692 22.4546C72.6878 22.4546 73.6557 22.1058 74.3518 21.3858L74.2415 22.1666H77.4498V12.4733H74.2415L74.3541 13.2704C73.6486 12.5515 72.6813 12.1853 71.4692 12.1853ZM70.2678 17.3019C70.2678 16.5586 70.457 15.9705 70.8568 15.5035C71.2577 15.053 71.7524 14.8226 72.3692 14.8226C72.9667 14.8226 73.4612 15.052 73.8625 15.5023C74.2474 15.9721 74.4525 16.5625 74.4525 17.3019C74.4525 18.0605 74.2468 18.6511 73.8615 19.1208C73.4605 19.588 72.9666 19.8173 72.3692 19.8173C71.7524 19.8173 71.2584 19.587 70.8577 19.1195C70.4576 18.6527 70.2678 18.0644 70.2678 17.3019Z" fill="#262626"/>
<path fill-rule="evenodd" clip-rule="evenodd" d="M103.78 12.1853C102.956 12.1853 102.221 12.4106 101.581 12.8439L101.578 12.8458C100.942 13.2947 100.436 13.8942 100.1 14.6602C99.7464 15.4414 99.5812 16.3112 99.5812 17.2839C99.5812 18.2737 99.7461 19.1615 100.099 19.943C100.435 20.7258 100.94 21.3441 101.578 21.7941C102.222 22.2486 102.958 22.4546 103.78 22.4546C104.999 22.4546 105.968 22.1053 106.664 21.3842L106.555 22.1666H109.761V12.4733H106.555L106.666 13.2719C105.961 12.552 104.993 12.1853 103.78 12.1853ZM102.579 17.3019C102.579 16.5586 102.768 15.9706 103.167 15.5036C103.568 15.0531 104.063 14.8226 104.68 14.8226C105.277 14.8226 105.772 15.052 106.173 15.5022C106.558 15.9721 106.763 16.5625 106.763 17.3019C106.763 18.0606 106.557 18.6512 106.172 19.1209C105.771 19.588 105.277 19.8173 104.68 19.8173C104.063 19.8173 103.569 19.587 103.168 19.1195C102.768 18.6527 102.579 18.0644 102.579 17.3019Z" fill="#262626"/>
<path d="M126.76 12.1853C125.37 12.1853 124.254 12.4778 123.426 13.0422L123.424 13.0437C122.587 13.6333 122.184 14.4405 122.184 15.4299C122.184 16.1769 122.371 16.7801 122.767 17.2161C123.149 17.6361 123.626 17.9221 124.158 18.0742C124.673 18.2212 125.329 18.3485 126.125 18.457C126.873 18.5639 127.4 18.6874 127.746 18.808C127.904 18.872 128.01 18.9504 128.076 19.0381C128.141 19.1245 128.178 19.232 128.178 19.3719C128.178 19.5888 128.058 19.7969 127.794 19.9946C127.547 20.1797 127.193 20.2673 126.724 20.2673C126.172 20.2673 125.74 20.1465 125.416 19.9194C125.096 19.6958 124.929 19.4028 124.929 19.0119V18.8453H121.947L121.95 19.0149C121.968 20.0908 122.406 20.951 123.261 21.5591C124.091 22.1628 125.228 22.4546 126.652 22.4546C128.022 22.4546 129.122 22.1809 129.934 21.6146C130.75 21.0452 131.175 20.2754 131.175 19.2819C131.175 18.4977 130.969 17.877 130.574 17.4418L130.571 17.4389C130.175 17.0242 129.7 16.7188 129.164 16.5657L129.163 16.5653C128.633 16.4192 127.96 16.2737 127.161 16.1647L127.155 16.1641C126.438 16.0925 125.919 15.9861 125.601 15.8522L125.594 15.8496C125.446 15.7952 125.351 15.7225 125.291 15.6403C125.232 15.5588 125.199 15.4552 125.199 15.3219C125.199 15.0507 125.3 14.8304 125.545 14.646C125.778 14.4758 126.117 14.3726 126.598 14.3726C127.104 14.3726 127.48 14.506 127.77 14.7303C128.036 14.9667 128.181 15.2827 128.214 15.6952L128.226 15.8486H131.19L131.174 15.6674C131.081 14.6003 130.647 13.7462 129.851 13.1209C129.059 12.4985 128.03 12.1853 126.76 12.1853Z" fill="#262626"/>
<path d="M54.6738 12.4733H51.6585V22.1666H54.6738V12.4733Z" fill="#262626"/>
<path d="M81.6886 12.4733H78.6732V22.1666H81.6886V12.4733Z" fill="#262626"/>
</g>
</svg>
