<svg width="56" height="56" viewBox="0 0 56 56" fill="none" xmlns="http://www.w3.org/2000/svg">
<rect width="56" height="56" rx="8" fill="#F47E3E"/>
<path d="M35.8743 30.6706C37.163 30.6706 38.2077 29.6259 38.2077 28.3372C38.2077 27.0486 37.163 26.0039 35.8743 26.0039C34.5857 26.0039 33.541 27.0486 33.541 28.3372C33.541 29.6259 34.5857 30.6706 35.8743 30.6706Z" fill="white"/>
<path d="M27.9993 28.3385C29.288 28.3385 30.3327 27.2939 30.3327 26.0052C30.3327 24.7165 29.288 23.6719 27.9993 23.6719C26.7107 23.6719 25.666 24.7165 25.666 26.0052C25.666 27.2939 26.7107 28.3385 27.9993 28.3385Z" fill="white"/>
<path d="M20.1243 30.6706C21.413 30.6706 22.4577 29.6259 22.4577 28.3372C22.4577 27.0486 21.413 26.0039 20.1243 26.0039C18.8357 26.0039 17.791 27.0486 17.791 28.3372C17.791 29.6259 18.8357 30.6706 20.1243 30.6706Z" fill="white"/>
<path d="M39.6663 26.2956C39.4913 26.2956 39.3163 26.2489 39.1647 26.1323L28.8397 18.8873C28.338 18.5373 27.6613 18.5373 27.1597 18.8873L16.8347 26.1323C16.7416 26.1991 16.6361 26.2467 16.5244 26.2724C16.4126 26.298 16.2969 26.3012 16.184 26.2816C16.071 26.2621 15.9631 26.2202 15.8665 26.1585C15.7699 26.0968 15.6866 26.0165 15.6213 25.9223C15.5545 25.8292 15.5069 25.7237 15.4812 25.612C15.4556 25.5002 15.4524 25.3845 15.472 25.2716C15.4915 25.1586 15.5334 25.0507 15.5951 24.9541C15.6568 24.8575 15.7371 24.7742 15.8313 24.7089L26.1563 17.4523C26.6976 17.0764 27.3407 16.875 27.9997 16.875C28.6586 16.875 29.3018 17.0764 29.843 17.4523L40.168 24.6973C40.5647 24.9773 40.658 25.5256 40.378 25.9106C40.203 26.1556 39.9347 26.2839 39.6547 26.2839L39.6663 26.2956ZM27.9997 29.2123C26.6856 29.2154 25.4262 29.7387 24.497 30.6679C23.5678 31.5971 23.0444 32.8565 23.0413 34.1706V38.2539C23.0413 38.7323 23.438 39.1289 23.9163 39.1289H32.083C32.5613 39.1289 32.958 38.7323 32.958 38.2539V34.1706C32.9549 32.8565 32.4315 31.5971 31.5023 30.6679C30.5731 29.7387 29.3138 29.2154 27.9997 29.2123ZM21.8747 38.2539V34.1706C21.8747 33.3773 22.038 32.6189 22.318 31.9306C21.7347 31.6856 21.093 31.5456 20.4163 31.5456C19.1023 31.5487 17.8429 32.0721 16.9137 33.0013C15.9845 33.9305 15.4611 35.1899 15.458 36.5039V38.2539C15.458 38.7323 15.8547 39.1289 16.333 39.1289H22.0847C21.9563 38.8606 21.8747 38.5689 21.8747 38.2539ZM35.583 31.5456C34.9063 31.5456 34.2763 31.6856 33.6813 31.9306C33.9613 32.6306 34.1247 33.3773 34.1247 34.1706V38.2539C34.1247 38.5689 34.043 38.8606 33.9147 39.1289H39.6663C40.1447 39.1289 40.5413 38.7323 40.5413 38.2539V36.5039C40.5383 35.1899 40.0149 33.9305 39.0857 33.0013C38.1565 32.0721 36.8971 31.5487 35.583 31.5456Z" fill="white"/>
</svg>
